{
	"patcher" : 	{
		"fileversion" : 1,
		"appversion" : 		{
			"major" : 8,
			"minor" : 3,
			"revision" : 2,
			"architecture" : "x64",
			"modernui" : 1
		}
,
		"classnamespace" : "box",
		"rect" : [ 333.0, 79.0, 529.0, 651.0 ],
		"bglocked" : 0,
		"openinpresentation" : 0,
		"default_fontsize" : 12.0,
		"default_fontface" : 0,
		"default_fontname" : "Arial",
		"gridonopen" : 1,
		"gridsize" : [ 15.0, 15.0 ],
		"gridsnaponopen" : 1,
		"objectsnaponopen" : 1,
		"statusbarvisible" : 2,
		"toolbarvisible" : 1,
		"lefttoolbarpinned" : 0,
		"toptoolbarpinned" : 0,
		"righttoolbarpinned" : 0,
		"bottomtoolbarpinned" : 0,
		"toolbars_unpinned_last_save" : 0,
		"tallnewobj" : 0,
		"boxanimatetime" : 200,
		"enablehscroll" : 1,
		"enablevscroll" : 1,
		"devicewidth" : 0.0,
		"description" : "",
		"digest" : "",
		"tags" : "",
		"style" : "",
		"subpatcher_template" : "",
		"assistshowspatchername" : 0,
		"boxes" : [ 			{
				"box" : 				{
					"color" : [ 0.317647, 0.654902, 0.976471, 1.0 ],
					"id" : "obj-10",
					"maxclass" : "newobj",
					"numinlets" : 1,
					"numoutlets" : 0,
					"patching_rect" : [ 21.25, 203.0, 83.0, 22.0 ],
					"text" : "print intervals:"
				}

			}
, 			{
				"box" : 				{
					"id" : "obj-9",
					"linecount" : 2,
					"maxclass" : "comment",
					"numinlets" : 1,
					"numoutlets" : 0,
					"patching_rect" : [ 308.350000000000023, 104.166666666666629, 138.899999999999977, 33.0 ],
					"text" : "<= obtain a random ordering of integers 0-11"
				}

			}
, 			{
				"box" : 				{
					"id" : "obj-8",
					"maxclass" : "comment",
					"numinlets" : 1,
					"numoutlets" : 0,
					"patching_rect" : [ 167.25, 162.166666666666629, 168.0, 20.0 ],
					"text" : "<= collect items into a new list"
				}

			}
, 			{
				"box" : 				{
					"fontface" : 2,
					"id" : "obj-7",
					"linecount" : 3,
					"maxclass" : "comment",
					"numinlets" : 1,
					"numoutlets" : 0,
					"patching_rect" : [ 45.25, 67.166666666666629, 76.0, 47.0 ],
					"text" : "This is our FOR LOOP structure!",
					"textcolor" : [ 0.52549, 0.062745, 0.003922, 1.0 ]
				}

			}
, 			{
				"box" : 				{
					"id" : "obj-6",
					"linecount" : 3,
					"maxclass" : "comment",
					"numinlets" : 1,
					"numoutlets" : 0,
					"patching_rect" : [ 380.300000000000068, 327.166666666666629, 137.0, 47.0 ],
					"text" : "(hardcoded durations & onsets of 200 ms for quick demonstration)"
				}

			}
, 			{
				"box" : 				{
					"id" : "obj-3",
					"maxclass" : "comment",
					"numinlets" : 1,
					"numoutlets" : 0,
					"patching_rect" : [ 177.449999999999989, 75.166666666666629, 183.0, 20.0 ],
					"text" : "<= quickly fire 12 bangs (iterate!)"
				}

			}
, 			{
				"box" : 				{
					"id" : "obj-5",
					"maxclass" : "comment",
					"numinlets" : 1,
					"numoutlets" : 0,
					"patching_rect" : [ 9.25, 305.166666666666629, 49.0, 20.0 ],
					"text" : "<attrui>"
				}

			}
, 			{
				"box" : 				{
					"id" : "obj-4",
					"maxclass" : "newobj",
					"numinlets" : 1,
					"numoutlets" : 2,
					"outlettype" : [ "", "bang" ],
					"patching_rect" : [ 114.25, 203.0, 228.100000000000023, 22.0 ],
					"text" : "t l b"
				}

			}
, 			{
				"box" : 				{
					"bgmode" : 0,
					"border" : 0,
					"clickthrough" : 0,
					"enablehscroll" : 0,
					"enablevscroll" : 0,
					"id" : "obj-2",
					"lockeddragscroll" : 0,
					"lockedsize" : 0,
					"maxclass" : "bpatcher",
					"name" : "z.credits.v01.bp.maxpat",
					"numinlets" : 0,
					"numoutlets" : 0,
					"offset" : [ 0.0, 0.0 ],
					"patching_rect" : [ 18.25, 554.0, 244.0, 75.0 ],
					"viewvisibility" : 1
				}

			}
, 			{
				"box" : 				{
					"id" : "obj-150",
					"linecount" : 2,
					"maxclass" : "comment",
					"numinlets" : 1,
					"numoutlets" : 0,
					"patching_rect" : [ 177.449999999999989, 130.166666666666629, 73.0, 33.0 ],
					"text" : "<= integers to midicents"
				}

			}
, 			{
				"box" : 				{
					"id" : "obj-149",
					"linecount" : 3,
					"maxclass" : "comment",
					"numinlets" : 1,
					"numoutlets" : 0,
					"patching_rect" : [ 254.350000000000023, 104.166666666666629, 60.0, 47.0 ],
					"text" : "<urn> : random, no repeat"
				}

			}
, 			{
				"box" : 				{
					"id" : "obj-147",
					"maxclass" : "message",
					"numinlets" : 2,
					"numoutlets" : 1,
					"outlettype" : [ "" ],
					"patching_rect" : [ 183.0, 104.166666666666629, 67.0, 22.0 ],
					"text" : "clear, bang"
				}

			}
, 			{
				"box" : 				{
					"color" : [ 0.52549, 0.062745, 0.003922, 1.0 ],
					"id" : "obj-144",
					"maxclass" : "newobj",
					"numinlets" : 2,
					"numoutlets" : 3,
					"outlettype" : [ "bang", "bang", "int" ],
					"patching_rect" : [ 132.25, 75.166666666666629, 41.0, 22.0 ],
					"text" : "uzi 12"
				}

			}
, 			{
				"box" : 				{
					"color" : [ 0.52549, 0.062745, 0.003922, 1.0 ],
					"id" : "obj-143",
					"maxclass" : "newobj",
					"numinlets" : 1,
					"numoutlets" : 2,
					"outlettype" : [ "bang", "bang" ],
					"patching_rect" : [ 114.25, 49.166666666666629, 37.0, 22.0 ],
					"text" : "b 2"
				}

			}
, 			{
				"box" : 				{
					"id" : "obj-142",
					"maxclass" : "button",
					"numinlets" : 1,
					"numoutlets" : 1,
					"outlettype" : [ "bang" ],
					"parameter_enable" : 0,
					"patching_rect" : [ 114.25, 19.166666666666629, 24.0, 24.0 ]
				}

			}
, 			{
				"box" : 				{
					"id" : "obj-69",
					"maxclass" : "comment",
					"numinlets" : 1,
					"numoutlets" : 0,
					"patching_rect" : [ 375.350000000000023, 237.166666666666629, 136.0, 20.0 ],
					"text" : "<= \"lowest\" note (offset)"
				}

			}
, 			{
				"box" : 				{
					"id" : "obj-68",
					"linecount" : 3,
					"maxclass" : "comment",
					"numinlets" : 1,
					"numoutlets" : 0,
					"patching_rect" : [ 9.25, 380.166666666666629, 95.0, 47.0 ],
					"text" : "dump for serial transformations of this row!"
				}

			}
, 			{
				"box" : 				{
					"id" : "obj-55",
					"maxclass" : "message",
					"numinlets" : 2,
					"numoutlets" : 1,
					"outlettype" : [ "" ],
					"patching_rect" : [ 333.850000000000023, 354.166666666666629, 37.0, 22.0 ],
					"text" : "(200)"
				}

			}
, 			{
				"box" : 				{
					"id" : "obj-54",
					"maxclass" : "message",
					"numinlets" : 2,
					"numoutlets" : 1,
					"outlettype" : [ "" ],
					"patching_rect" : [ 187.449999999999989, 354.166666666666629, 47.0, 22.0 ],
					"text" : "(0 200)"
				}

			}
, 			{
				"box" : 				{
					"color" : [ 0.701960784313725, 0.811764705882353, 0.301960784313725, 1.0 ],
					"id" : "obj-30",
					"maxclass" : "newobj",
					"numinlets" : 1,
					"numoutlets" : 1,
					"outlettype" : [ "" ],
					"patching_rect" : [ 218.535714285714278, 486.166666666666629, 54.0, 22.0 ],
					"saved_object_attributes" : 					{
						"versionnumber" : 80100
					}
,
					"text" : "bach.flat"
				}

			}
, 			{
				"box" : 				{
					"id" : "obj-29",
					"maxclass" : "message",
					"numinlets" : 2,
					"numoutlets" : 1,
					"outlettype" : [ "" ],
					"patching_rect" : [ 9.25, 428.583333333333258, 71.0, 22.0 ],
					"text" : "dump cents"
				}

			}
, 			{
				"box" : 				{
					"color" : [ 0.426776885986328, 0.621950805187225, 0.315424293279648, 1.0 ],
					"id" : "obj-25",
					"maxclass" : "newobj",
					"numinlets" : 1,
					"numoutlets" : 0,
					"patching_rect" : [ 427.107142857142833, 486.166666666666629, 40.0, 22.0 ],
					"text" : "s play"
				}

			}
, 			{
				"box" : 				{
					"id" : "obj-24",
					"maxclass" : "newobj",
					"numinlets" : 3,
					"numoutlets" : 2,
					"outlettype" : [ "", "int" ],
					"patching_rect" : [ 349.25, 39.166666666666629, 105.0, 22.0 ],
					"text" : "bach.ezmidiplay 8"
				}

			}
, 			{
				"box" : 				{
					"color" : [ 0.426776885986328, 0.621950805187225, 0.315424293279648, 1.0 ],
					"id" : "obj-23",
					"maxclass" : "newobj",
					"numinlets" : 0,
					"numoutlets" : 1,
					"outlettype" : [ "" ],
					"patching_rect" : [ 349.25, 13.166666666666629, 38.0, 22.0 ],
					"text" : "r play"
				}

			}
, 			{
				"box" : 				{
					"attr" : "zoom",
					"id" : "obj-22",
					"maxclass" : "attrui",
					"numinlets" : 1,
					"numoutlets" : 1,
					"outlettype" : [ "" ],
					"parameter_enable" : 0,
					"patching_rect" : [ 9.25, 327.166666666666629, 99.0, 22.0 ],
					"text_width" : 50.75
				}

			}
, 			{
				"box" : 				{
					"color" : [ 0.701960784313725, 0.811764705882353, 0.301960784313725, 1.0 ],
					"id" : "obj-21",
					"maxclass" : "newobj",
					"numinlets" : 1,
					"numoutlets" : 1,
					"outlettype" : [ "" ],
					"patching_rect" : [ 260.649999999999977, 354.166666666666629, 64.0, 22.0 ],
					"saved_object_attributes" : 					{
						"versionnumber" : 80100
					}
,
					"text" : "bach.wrap"
				}

			}
, 			{
				"box" : 				{
					"id" : "obj-19",
					"maxclass" : "newobj",
					"numinlets" : 1,
					"numoutlets" : 4,
					"outlettype" : [ "bang", "bang", "", "bang" ],
					"patching_rect" : [ 114.25, 327.166666666666629, 238.600000000000023, 22.0 ],
					"text" : "t b b l b"
				}

			}
, 			{
				"box" : 				{
					"color" : [ 0.870588, 0.415686, 0.062745, 1.0 ],
					"id" : "obj-18",
					"maxclass" : "newobj",
					"numinlets" : 1,
					"numoutlets" : 1,
					"outlettype" : [ "" ],
					"patching_rect" : [ 349.25, 203.0, 113.0, 22.0 ],
					"text" : "loadmess set 6000."
				}

			}
, 			{
				"box" : 				{
					"id" : "obj-17",
					"maxclass" : "newobj",
					"numinlets" : 1,
					"numoutlets" : 2,
					"outlettype" : [ "bang", "float" ],
					"patching_rect" : [ 323.350000000000023, 263.166666666666629, 29.5, 22.0 ],
					"text" : "t b f"
				}

			}
, 			{
				"box" : 				{
					"format" : 6,
					"id" : "obj-16",
					"maxclass" : "flonum",
					"numinlets" : 1,
					"numoutlets" : 2,
					"outlettype" : [ "", "bang" ],
					"parameter_enable" : 0,
					"patching_rect" : [ 323.350000000000023, 237.166666666666629, 50.0, 22.0 ]
				}

			}
, 			{
				"box" : 				{
					"id" : "obj-13",
					"maxclass" : "newobj",
					"numinlets" : 2,
					"numoutlets" : 1,
					"outlettype" : [ "" ],
					"patching_rect" : [ 114.25, 297.166666666666629, 238.600000000000023, 22.0 ],
					"text" : "bach.+ 0."
				}

			}
, 			{
				"box" : 				{
					"bwcompatibility" : 80100,
					"defaultnoteslots" : [ "null" ],
					"fontface" : 0,
					"fontname" : "Arial",
					"fontsize" : 12.0,
					"grid" : 1,
					"id" : "obj-1",
					"loop" : [ 0.0, 1000.0 ],
					"maxclass" : "bach.roll",
					"numinlets" : 6,
					"numoutlets" : 8,
					"numvoices" : 1,
					"out" : "nnnnnnn",
					"outlettype" : [ "", "", "", "", "", "", "", "bang" ],
					"patching_rect" : [ 114.25, 380.166666666666629, 384.0, 101.0 ],
					"pitcheditrange" : [ "null" ],
					"ruler" : 3,
					"stafflines" : [ 5 ],
					"textcolor" : [ 0.0, 0.0, 0.0, 1.0 ],
					"versionnumber" : 80100,
					"voicenames" : [ "[", "]" ],
					"voicespacing" : [ 0.0, 17.0 ],
					"whole_roll_data_0000000000" : [ "roll", "[", "slotinfo", "[", 1, "[", "name", "velocity envelope", "]", "[", "type", "function", "]", "[", "key", 0, "]", "[", "range", "_x_x_x_x_bach_float64_x_x_x_x_", 0, 0, "_x_x_x_x_bach_float64_x_x_x_x_", 0, 1080016896, "]", "[", "slope", "_x_x_x_x_bach_float64_x_x_x_x_", 0, 0, "]", "[", "representation", "]", "[", "grid", "]", "[", "ysnap", "]", "[", "domain", "_x_x_x_x_bach_float64_x_x_x_x_", 0, 0, "_x_x_x_x_bach_float64_x_x_x_x_", 0, 1072693248, "]", "[", "domainslope", "_x_x_x_x_bach_float64_x_x_x_x_", 0, 0, "]", "[", "temporalmode", "relative", "]", "[", "extend", 0, "]", "[", "width", "auto", "]", "[", "height", "auto", "]", "[", "copywhensplit", 0, "]", "[", "access", "readandwrite", "]", "[", "follownotehead", 0, "]", "]", "[", 2, "[", "name", "slot function", "]", "[", "type", "function", "]", "[", "key", 0, "]", "[", "range", "_x_x_x_x_bach_float64_x_x_x_x_", 0, 0, "_x_x_x_x_bach_float64_x_x_x_x_", 0, 1072693248, "]", "[", "slope", "_x_x_x_x_bach_float64_x_x_x_x_", 0, 0, "]", "[", "representation", "]", "[", "grid", "]", "[", "ysnap", "]", "[", "domain", "_x_x_x_x_bach_float64_x_x_x_x_", 0, 0, "_x_x_x_x_bach_float64_x_x_x_x_", 0, 1072693248, "]", "[", "domainslope", "_x_x_x_x_bach_float64_x_x_x_x_", 0, 0, "]", "[", "temporalmode", "relative", "]", "[", "extend", 0, "]", "[", "width", "auto", "]", "[", "height", "auto", "]", "[", "copywhensplit", 0, "]", "[", "access", "readandwrite", "]", "[", "follownotehead", 0, "]", "]", "[", 3, "[", "name", "slot intlist", "]", "[", "type", "intlist", "]", "[", "key", 0, "]", "[", "range", "_x_x_x_x_bach_float64_x_x_x_x_", 0, 0, "_x_x_x_x_bach_float64_x_x_x_x_", 0, 1080016896, "]", "[", "slope", "_x_x_x_x_bach_float64_x_x_x_x_", 0, 0, "]", "[", "representation", "]", "[", "default", "_x_x_x_x_bach_float64_x_x_x_x_", 0, 1078984704, "]", "[", "temporalmode", "none", "]", "[", "extend", 0, "]", "[", "width", "_x_x_x_x_bach_float64_x_x_x_x_", 0, 1079574528, "]", "[", "height", "auto", "]", "[", "copywhensplit", 1, "]", "[", "access", "readandwrite", "]", "[", "follownotehead", 0, "]", "]", "[", 4, "[", "name", "slot floatlist", "]", "[", "type", "floatlist", "]", "[", "key", 0, "]", "[", "range", "_x_x_x_x_bach_float64_x_x_x_x_", 0, 0, "_x_x_x_x_bach_float64_x_x_x_x_", 0, 1072693248, "]", "[", "slope", "_x_x_x_x_bach_float64_x_x_x_x_", 0, 0, "]", "[", "representation", "]", "[", "default", "_x_x_x_x_bach_float64_x_x_x_x_", 0, 0, "]", "[", "temporalmode", "none", "]", "[", "extend", 0, "]", "[", "width", "_x_x_x_x_bach_float64_x_x_x_x_", 0, 1079574528, "]", "[", "height", "auto", "]", "[", "copywhensplit", 1, "]", "[", "access", "readandwrite", "]", "[", "follownotehead", 0, "]", "]", "[", 5, "[", "name", "slot int", "]", "[", "type", "int", "]", "[", "key", 0, "]", "[", "range", "_x_x_x_x_bach_float64_x_x_x_x_", 0, 0, "_x_x_x_x_bach_float64_x_x_x_x_", 0, 1080016896, "]", "[", "slope", "_x_x_x_x_bach_float64_x_x_x_x_", 0, 0, "]", "[", "representation", "]", "[", "default", "_x_x_x_x_bach_float64_x_x_x_x_", 0, 1078984704, "]", "[", "temporalmode", "none", "]", "[", "extend", 0, "]", "[", "width", "_x_x_x_x_bach_float64_x_x_x_x_", 0, 1079574528, "]", "[", "height", "auto", "]", "[", "copywhensplit", 1, "]", "[", "access", "readandwrite", "]", "[", "follownotehead", 0, "]", "]", "[", 6, "[", "name", "slot float", "]", "[", "type", "float", "]", "[", "key", 0, "]", "[", "range", "_x_x_x_x_bach_float64_x_x_x_x_", 0, 0, "_x_x_x_x_bach_float64_x_x_x_x_", 0, 1072693248, "]", "[", "slope", "_x_x_x_x_bach_float64_x_x_x_x_", 0, 0, "]", "[", "representation", "]", "[", "default", "_x_x_x_x_bach_float64_x_x_x_x_", 0, 0, "]", "[", "temporalmode", "none", "]", "[", "extend", 0, "]", "[", "width", "_x_x_x_x_bach_float64_x_x_x_x_", 0, 1079574528, "]", "[", "height", "auto", "]", "[", "copywhensplit", 1, "]", "[", "access", "readandwrite", "]", "[", "follownotehead", 0, "]", "]", "[", 7, "[", "name", "slot text", "]", "[", "type", "text", "]", "[", "key", 0, "]", "[", "temporalmode", "none", "]", "[", "extend", 0, "]", "[", "width", "_x_x_x_x_bach_float64_x_x_x_x_", 0, 1079574528, "]", "[", "height", "auto", "]", "[", "copywhensplit", 0, "]", "[", "access", "readandwrite", "]", "[", "follownotehead", 0, "]", "]", "[", 8, "[", "name", "slot filelist", "]", "[", "type", "filelist", "]", "[", "key", 0, "]", "[", "temporalmode", "none", "]", "[", "extend", 0, "]", "[", "width", "_x_x_x_x_bach_float64_x_x_x_x_", 0, 1080213504, "]", "[", "height", "auto", "]", "[", "copywhensplit", 1, "]", "[", "access", "readandwrite", "]", "[", "follownotehead", 0, "]", "]", "[", 9, "[", "name", "slot spat", "]", "[", "type", "spat", "]", "[", "key", 0, "]", "[", "range", "_x_x_x_x_bach_float64_x_x_x_x_", 0, 0, "_x_x_x_x_bach_float64_x_x_x_x_", 0, 1076101120, "]", "[", "slope", "_x_x_x_x_bach_float64_x_x_x_x_", 0, 0, "]", "[", "representation", "]", "[", "temporalmode", "relative", "]", "[", "extend", 0, "]", "[", "width", "auto", "]", "[", "height", "auto", "]", "[", "copywhensplit", 0, "]", "[", "access", "readandwrite", "]", "[", "follownotehead", 0, "]", "]", "[", 10, "[", "name", "slot llll", "]", "[", "type", "llll", "]", "[", "key", 0, "]", "[", "temporalmode", "none", "]", "[", "extend", 0, "]", "[", "width", "_x_x_x_x_bach_float64_x_x_x_x_", 0, 1079574528, "]", "[", "height", "auto", "]", "[", "copywhensplit", 0, "]", "[", "access", "readandwrite", "]", "[", "follownotehead", 0, "]", "]", "[", 11, "[", "name", "slot 11", "]", "[", "type", "none", "]", "[", "key", 0, "]", "[", "temporalmode", "none", "]", "[", "extend", 0, "]", "[", "width", "_x_x_x_x_bach_float64_x_x_x_x_", 0, 1079574528, "]", "[", "height", "auto", "]", "[", "copywhensplit", 1, "]", "[", "access", "readandwrite", "]", "[", "follownotehead", 0, "]", "]", "[", 12, "[", "name", "slot 12", "]", "[", "type", "none", "]", "[", "key", 0, "]", "[", "temporalmode", "none", "]", "[", "extend", 0, "]", "[", "width", "_x_x_x_x_bach_float64_x_x_x_x_", 0, 1079574528, "]", "[", "height", "auto", "]", "[", "copywhensplit", 1, "]", "[", "access", "readandwrite", "]", "[", "follownotehead", 0, "]", "]", "[", 13, "[", "name", "slot 13", "]", "[", "type", "none", "]", "[", "key", 0, "]", "[", "temporalmode", "none", "]", "[", "extend", 0, "]", "[", "width", "_x_x_x_x_bach_float64_x_x_x_x_", 0, 1079574528, "]", "[", "height", "auto", "]", "[", "copywhensplit", 1, "]", "[", "access", "readandwrite", "]", "[", "follownotehead", 0, "]", "]", "[", 14, "[", "name", "slot 14", "]", "[", "type", "none", "]", "[", "key", 0, "]", "[", "temporalmode", "none", "]", "[", "extend", 0, "]", "[", "width", "_x_x_x_x_bach_float64_x_x_x_x_", 0, 1079574528, "]", "[", "height", "auto", "]", "[", "copywhensplit", 1, "]", "[", "access", "readandwrite", "]", "[", "follownotehead", 0, "]", "]", "[", 15, "[", "name", "slot 15", "]", "[", "type", "none", "]", "[", "key", 0, "]", "[", "temporalmode", "none", "]", "[", "extend", 0, "]", "[", "width", "_x_x_x_x_bach_float64_x_x_x_x_", 0, 1079574528, "]", "[", "height", "auto", "]", "[", "copywhensplit", 1, "]", "[", "access", "readandwrite", "]", "[", "follownotehead", 0, "]", "]", "[", 16, "[", "name", "slot 16", "]", "[", "type", "none", "]", "[", "key", 0, "]", "[", "temporalmode", "none", "]", "[", "extend", 0, "]", "[", "width", "_x_x_x_x_bach_float64_x_x_x_x_", 0, 1079574528, "]", "[", "height", "auto", "]", "[", "copywhensplit", 1, "]", "[", "access", "readandwrite", "]", "[", "follownotehead", 0, "]", "]", "[", 17, "[", "name", "slot 17", "]", "[", "type", "none", "]", "[", "key", 0, "]", "[", "temporalmode", "none", "]", "[", "extend", 0, "]", "[", "width", "_x_x_x_x_bach_float64_x_x_x_x_", 0, 1079574528, "]", "[", "height", "auto", "]", "[", "copywhensplit", 1, "]", "[", "access", "readandwrite", "]", "[", "follownotehead", 0, "]", "]", "[", 18, "[", "name", "slot 18", "]", "[", "type", "none", "]", "[", "key", 0, "]", "[", "temporalmode", "none", "]", "[", "extend", 0, "]", "[", "width", "_x_x_x_x_bach_float64_x_x_x_x_", 0, 1079574528, "]", "[", "height", "auto", "]", "[", "copywhensplit", 1, "]", "[", "access", "readandwrite", "]", "[", "follownotehead", 0, "]", "]", "[", 19, "[", "name", "slot 19", "]", "[", "type", "none", "]", "[", "key", 0, "]", "[", "temporalmode", "none", "]", "[", "extend", 0, "]", "[", "width", "_x_x_x_x_bach_float64_x_x_x_x_", 0, 1079574528, "]", "[", "height", "auto", "]", "[", "copywhensplit", 1, "]", "[", "access", "readandwrite", "]", "[", "follownotehead", 0, "]", "]", "[", 20, "[", "name", "dynamics", "]", "[", "type", "dynamics", "]", "[", "key", "d", "]", "[", "temporalmode", "none", "]", "[", "extend", 0, "]", "[", "width", "_x_x_x_x_bach_float64_x_x_x_x_", 0, 1079738368, "]", "[", "height", "auto", "]", "[", "copywhensplit", 0, "]", "[", "access", "readandwrite", "]", "[", "follownotehead", 0, "]", "]", "[", 21, "[", "name", "lyrics", "]", "[", "type", "text", "]", "[", "key", "l", "]", "[", "temporalmode", "none", "]", "[", "extend", 0, "]", "[", "width", "_x_x_x_x_bach_float64_x_x_x_x_", 0, 1079574528, "]", "[", "height", "auto", "]", "[", "copywhensplit", 0, "]", "[", "access", "readandwrite", "]", "[", "follownotehead", 0, "]", "]", "[", 22, "[", "name", "articulations", "]", "[", "type", "articulations", "]", "[", "key", "a", "]", "[", "temporalmode", "none", "]", "[", "extend", 0, "]", "[", "width", "_x_x_x_x_bach_float64_x_x_x_x_", 0, 1079738368, "]", "[", "height", "auto", "]", "[", "copywhensplit", 1, "]", "[", "access", "readandwrite", "]", "[", "follownotehead", 0, "]", "]", "[", 23, "[", "name", "notehead", "]", "[", "type", "notehead", "]", "[", "key", "h", "]", "[", "temporalmode", "none", "]", "[", "extend", 0, "]", "[", "width", "_x_x_x_x_bach_float64_x_x_x_x_", 0, 1079738368, "]", "[", "height", "auto", "]", "[", "copywhensplit", 1, "]", "[", "access", "readandwrite", "]", "[", "follownotehead", 0, "]", "]", "[", 24, "[", "name", "annotation", "]", "[", "type", "text", "]", "[", "key", "t", "]", "[", "temporalmode", "none", "]", "[", "extend", 0, "]", "[", "width", "_x_x_x_x_bach_float64_x_x_x_x_", 0, 1079574528, "]", "[", "height", "auto", "]", "[", "copywhensplit", 1, "]", "[", "access", "readandwrite", "]", "[", "follownotehead", 0, "]", "]", "[", 25, "[", "name", "slot 25", "]", "[", "type", "none", "]", "[", "key", 0, "]", "[", "temporalmode", "none", "]", "[", "extend", 0, "]", "[", "width", "_x_x_x_x_bach_float64_x_x_x_x_", 0, 1079574528, "]", "[", "height", "auto", "]", "[", "copywhensplit", 1, "]", "[", "access", "readandwrite", "]", "[", "follownotehead", 0, "]", "]", "[", 26, "[", "name", "slot 26", "]", "[", "type", "none", "]", "[", "key", 0, "]", "[", "temporalmode", "none", "]", "[", "extend", 0, "]", "[", "width", "_x_x_x_x_bach_float64_x_x_x_x_", 0, 1079574528, "]", "[", "height", "auto", "]", "[", "copywhensplit", 1, "]", "[", "access", "readandwrite", "]", "[", "follownotehead", 0, "]", "]", "[", 27, "[", "name", "slot 27", "]", "[", "type", "none", "]", "[", "key", 0, "]", "[", "temporalmode", "none", "]", "[", "extend", 0, "]", "[", "width", "_x_x_x_x_bach_float64_x_x_x_x_", 0, 1079574528, "]", "[", "height", "auto", "]", "[", "copywhensplit", 1, "]", "[", "access", "readandwrite", "]", "[", "follownotehead", 0, "]", "]", "[", 28, "[", "name", "slot 28", "]", "[", "type", "none", "]", "[", "key", 0, "]", "[", "temporalmode", "none", "]", "[", "extend", 0, "]", "[", "width", "_x_x_x_x_bach_float64_x_x_x_x_", 0, 1079574528, "]", "[", "height", "auto", "]", "[", "copywhensplit", 1, "]", "[", "access", "readandwrite", "]", "[", "follownotehead", 0, "]", "]", "[", 29, "[", "name", "slot 29", "]", "[", "type", "none", "]", "[", "key", 0, "]", "[", "temporalmode", "none", "]", "[", "extend", 0, "]", "[", "width", "_x_x_x_x_bach_float64_x_x_x_x_", 0, 1079574528, "]", "[", "height", "auto", "]", "[", "copywhensplit", 1, "]", "[", "access", "readandwrite", "]", "[", "follownotehead", 0, "]", "]", "[", 30, "[", "name", "slot 30", "]", "[", "type", "none", "]", "[", "key", 0, "]", "[", "temporalmode", "none", "]", "[", "extend", 0, "]", "[", "width", "_x_x_x_x_bach_float64_x_x_x_x_", 0, 1079574528, "]", "[", "height", "auto", "]", "[", "copywhensplit", 1, "]", "[", "access", "readandwrite", "]", "[", "follownotehead", 0, "]", "]", "]", "[", "commands", "[", 1, "[", "note", "note", "]", "[", "chord", "chord", "]", "[", "rest", "rest", "]", "[", "key", 0, "]", "]", "[", 2, "[", "note", "note", "]", "[", "chord", "chord", "]", "[", "rest", "rest", "]", "[", "key", 0, "]", "]", "[", 3, "[", "note", "note", "]", "[", "chord", "chord", "]", "[", "rest", "rest", "]", "[", "key", 0, "]", "]", "[", 4, "[", "note", "note", "]", "[", "chord", "chord", "]", "[", "rest", "rest", "]", "[", "key", 0, "]", "]", "[", 5, "[", "note", "note", "]", "[", "chord", "chord", "]", "[", "rest", "rest", "]", "[", "key", 0, "]", "]", "]", "[", "groups", "]", "[", "markers", "]", "[", "midichannels", 1, "]", "[", "articulationinfo", "]", "[", "noteheadinfo", "]", "[", 0, "]" ],
					"whole_roll_data_count" : [ 1 ]
				}

			}
, 			{
				"box" : 				{
					"color" : [ 0.52549, 0.062745, 0.003922, 1.0 ],
					"id" : "obj-140",
					"maxclass" : "newobj",
					"numinlets" : 2,
					"numoutlets" : 2,
					"outlettype" : [ "", "" ],
					"patching_rect" : [ 114.25, 161.166666666666629, 51.0, 22.0 ],
					"text" : "zl group"
				}

			}
, 			{
				"box" : 				{
					"id" : "obj-139",
					"maxclass" : "newobj",
					"numinlets" : 2,
					"numoutlets" : 1,
					"outlettype" : [ "float" ],
					"patching_rect" : [ 132.25, 130.166666666666629, 40.0, 22.0 ],
					"text" : "* 100."
				}

			}
, 			{
				"box" : 				{
					"bgcolor" : [ 0.317647, 0.654902, 0.976471, 1.0 ],
					"fontname" : "Arial Bold",
					"id" : "obj-127",
					"linecount" : 2,
					"maxclass" : "comment",
					"numinlets" : 1,
					"numoutlets" : 0,
					"patching_rect" : [ 9.25, 19.166666666666629, 93.678571428571445, 33.0 ],
					"text" : "GENERATE A 12-TONE ROW"
				}

			}
, 			{
				"box" : 				{
					"color" : [ 0.701961, 0.415686, 0.886275, 1.0 ],
					"id" : "obj-71",
					"maxclass" : "newobj",
					"numinlets" : 1,
					"numoutlets" : 0,
					"patching_rect" : [ 218.535714285714278, 512.583333333333258, 37.0, 22.0 ],
					"text" : "s row"
				}

			}
, 			{
				"box" : 				{
					"id" : "obj-50",
					"maxclass" : "comment",
					"numinlets" : 1,
					"numoutlets" : 0,
					"patching_rect" : [ 136.800000000000011, 21.166666666666629, 169.0, 20.0 ],
					"text" : "<= bang to initiate the process"
				}

			}
, 			{
				"box" : 				{
					"color" : [ 0.862745, 0.741176, 0.137255, 1.0 ],
					"id" : "obj-42",
					"maxclass" : "newobj",
					"numinlets" : 2,
					"numoutlets" : 2,
					"outlettype" : [ "int", "bang" ],
					"patching_rect" : [ 132.25, 104.166666666666629, 43.0, 22.0 ],
					"text" : "urn 12"
				}

			}
 ],
		"lines" : [ 			{
				"patchline" : 				{
					"destination" : [ "obj-25", 0 ],
					"source" : [ "obj-1", 6 ]
				}

			}
, 			{
				"patchline" : 				{
					"destination" : [ "obj-30", 0 ],
					"source" : [ "obj-1", 2 ]
				}

			}
, 			{
				"patchline" : 				{
					"destination" : [ "obj-19", 0 ],
					"source" : [ "obj-13", 0 ]
				}

			}
, 			{
				"patchline" : 				{
					"destination" : [ "obj-140", 0 ],
					"source" : [ "obj-139", 0 ]
				}

			}
, 			{
				"patchline" : 				{
					"destination" : [ "obj-10", 0 ],
					"order" : 1,
					"source" : [ "obj-140", 0 ]
				}

			}
, 			{
				"patchline" : 				{
					"destination" : [ "obj-4", 0 ],
					"order" : 0,
					"source" : [ "obj-140", 0 ]
				}

			}
, 			{
				"patchline" : 				{
					"destination" : [ "obj-143", 0 ],
					"source" : [ "obj-142", 0 ]
				}

			}
, 			{
				"patchline" : 				{
					"destination" : [ "obj-140", 0 ],
					"source" : [ "obj-143", 0 ]
				}

			}
, 			{
				"patchline" : 				{
					"destination" : [ "obj-144", 0 ],
					"source" : [ "obj-143", 1 ]
				}

			}
, 			{
				"patchline" : 				{
					"destination" : [ "obj-42", 0 ],
					"source" : [ "obj-144", 0 ]
				}

			}
, 			{
				"patchline" : 				{
					"destination" : [ "obj-42", 0 ],
					"source" : [ "obj-147", 0 ]
				}

			}
, 			{
				"patchline" : 				{
					"destination" : [ "obj-17", 0 ],
					"source" : [ "obj-16", 0 ]
				}

			}
, 			{
				"patchline" : 				{
					"destination" : [ "obj-13", 1 ],
					"source" : [ "obj-17", 1 ]
				}

			}
, 			{
				"patchline" : 				{
					"destination" : [ "obj-13", 0 ],
					"source" : [ "obj-17", 0 ]
				}

			}
, 			{
				"patchline" : 				{
					"destination" : [ "obj-16", 0 ],
					"source" : [ "obj-18", 0 ]
				}

			}
, 			{
				"patchline" : 				{
					"destination" : [ "obj-1", 0 ],
					"source" : [ "obj-19", 0 ]
				}

			}
, 			{
				"patchline" : 				{
					"destination" : [ "obj-21", 0 ],
					"source" : [ "obj-19", 2 ]
				}

			}
, 			{
				"patchline" : 				{
					"destination" : [ "obj-54", 0 ],
					"source" : [ "obj-19", 1 ]
				}

			}
, 			{
				"patchline" : 				{
					"destination" : [ "obj-55", 0 ],
					"source" : [ "obj-19", 3 ]
				}

			}
, 			{
				"patchline" : 				{
					"destination" : [ "obj-1", 2 ],
					"source" : [ "obj-21", 0 ]
				}

			}
, 			{
				"patchline" : 				{
					"destination" : [ "obj-1", 0 ],
					"source" : [ "obj-22", 0 ]
				}

			}
, 			{
				"patchline" : 				{
					"destination" : [ "obj-24", 0 ],
					"source" : [ "obj-23", 0 ]
				}

			}
, 			{
				"patchline" : 				{
					"destination" : [ "obj-1", 0 ],
					"source" : [ "obj-29", 0 ]
				}

			}
, 			{
				"patchline" : 				{
					"destination" : [ "obj-71", 0 ],
					"source" : [ "obj-30", 0 ]
				}

			}
, 			{
				"patchline" : 				{
					"destination" : [ "obj-13", 0 ],
					"source" : [ "obj-4", 0 ]
				}

			}
, 			{
				"patchline" : 				{
					"destination" : [ "obj-16", 0 ],
					"source" : [ "obj-4", 1 ]
				}

			}
, 			{
				"patchline" : 				{
					"destination" : [ "obj-139", 0 ],
					"source" : [ "obj-42", 0 ]
				}

			}
, 			{
				"patchline" : 				{
					"destination" : [ "obj-147", 0 ],
					"source" : [ "obj-42", 1 ]
				}

			}
, 			{
				"patchline" : 				{
					"destination" : [ "obj-1", 1 ],
					"source" : [ "obj-54", 0 ]
				}

			}
, 			{
				"patchline" : 				{
					"destination" : [ "obj-1", 3 ],
					"source" : [ "obj-55", 0 ]
				}

			}
 ],
		"dependency_cache" : [ 			{
				"name" : "bach.+.maxpat",
				"bootpath" : "~/Documents/Max 8/Packages/bach/patchers",
				"patcherrelativepath" : "../../../../../Max 8/Packages/bach/patchers",
				"type" : "JSON",
				"implicit" : 1
			}
, 			{
				"name" : "bach.approx.maxpat",
				"bootpath" : "~/Documents/Max 8/Packages/bach/patchers",
				"patcherrelativepath" : "../../../../../Max 8/Packages/bach/patchers",
				"type" : "JSON",
				"implicit" : 1
			}
, 			{
				"name" : "bach.args.mxo",
				"type" : "iLaX"
			}
, 			{
				"name" : "bach.eq.mxo",
				"type" : "iLaX"
			}
, 			{
				"name" : "bach.expr.mxo",
				"type" : "iLaX"
			}
, 			{
				"name" : "bach.ezmidiplay.maxpat",
				"bootpath" : "~/Documents/Max 8/Packages/bach/patchers",
				"patcherrelativepath" : "../../../../../Max 8/Packages/bach/patchers",
				"type" : "JSON",
				"implicit" : 1
			}
, 			{
				"name" : "bach.filter.maxpat",
				"bootpath" : "~/Documents/Max 8/Packages/bach/patchers",
				"patcherrelativepath" : "../../../../../Max 8/Packages/bach/patchers",
				"type" : "JSON",
				"implicit" : 1
			}
, 			{
				"name" : "bach.flat.mxo",
				"type" : "iLaX"
			}
, 			{
				"name" : "bach.gcd.maxpat",
				"bootpath" : "~/Documents/Max 8/Packages/bach/patchers",
				"patcherrelativepath" : "../../../../../Max 8/Packages/bach/patchers",
				"type" : "JSON",
				"implicit" : 1
			}
, 			{
				"name" : "bach.gt.mxo",
				"type" : "iLaX"
			}
, 			{
				"name" : "bach.is.mxo",
				"type" : "iLaX"
			}
, 			{
				"name" : "bach.iter.mxo",
				"type" : "iLaX"
			}
, 			{
				"name" : "bach.keys.mxo",
				"type" : "iLaX"
			}
, 			{
				"name" : "bach.length.mxo",
				"type" : "iLaX"
			}
, 			{
				"name" : "bach.neq.mxo",
				"type" : "iLaX"
			}
, 			{
				"name" : "bach.nth.mxo",
				"type" : "iLaX"
			}
, 			{
				"name" : "bach.pick.mxo",
				"type" : "iLaX"
			}
, 			{
				"name" : "bach.playkeys.mxo",
				"type" : "iLaX"
			}
, 			{
				"name" : "bach.portal.mxo",
				"type" : "iLaX"
			}
, 			{
				"name" : "bach.print.mxo",
				"type" : "iLaX"
			}
, 			{
				"name" : "bach.reg.mxo",
				"type" : "iLaX"
			}
, 			{
				"name" : "bach.roll.mxo",
				"type" : "iLaX"
			}
, 			{
				"name" : "bach.slice.mxo",
				"type" : "iLaX"
			}
, 			{
				"name" : "bach.wrap.mxo",
				"type" : "iLaX"
			}
, 			{
				"name" : "z.CMC-logo300dpi.2x.gif",
				"bootpath" : "~/Documents/CU/Semester 11/elex.cmc/week.7.cac1/cac.week1.boiler.patches",
				"patcherrelativepath" : ".",
				"type" : "GIFf",
				"implicit" : 1
			}
, 			{
				"name" : "z.by-sa.2x.png",
				"bootpath" : "~/Documents/CU/Semester 11/elex.cmc/week.7.cac1/cac.week1.boiler.patches",
				"patcherrelativepath" : ".",
				"type" : "PNG",
				"implicit" : 1
			}
, 			{
				"name" : "z.credits.v01.bp.maxpat",
				"bootpath" : "~/Documents/CU/Semester 11/elex.cmc/week.7.cac1/cac.week1.boiler.patches",
				"patcherrelativepath" : ".",
				"type" : "JSON",
				"implicit" : 1
			}
 ],
		"autosave" : 0
	}

}
